<svg width="27" height="21" viewBox="0 0 27 21" fill="none" xmlns="http://www.w3.org/2000/svg">
<g clip-path="url(#clip0_531_3081)">
<path d="M14.0958 5.13697C19.9115 5.42978 25.0393 9.54669 25.2931 15.453C25.3182 16.029 25.1757 16.2861 24.5686 16.2861C17.2073 16.2861 9.84647 16.2861 2.48566 16.2861C1.86816 16.2861 1.68854 16.0658 1.71311 15.4866C1.96316 9.59256 7.05163 5.42711 12.8886 5.14551C12.9208 5.14391 12.9465 5.12364 12.9465 5.09964L12.946 4.88577C12.946 4.8719 12.9296 4.85697 12.9061 4.85057C11.0613 4.32895 10.637 2.01102 12.1969 0.912861C13.7485 -0.179435 15.939 1.03766 15.7665 2.90225C15.6791 3.84734 15.0267 4.57749 14.0941 4.85537C14.0767 4.8607 14.0652 4.87297 14.0652 4.88577V5.11244C14.0652 5.12524 14.0783 5.13591 14.0958 5.13697ZM14.6543 2.71558C14.6543 2.09583 14.14 1.59341 13.5056 1.59341C12.8712 1.59341 12.3568 2.09583 12.3568 2.71558C12.3568 3.33533 12.8712 3.83774 13.5056 3.83774C14.14 3.83774 14.6543 3.33533 14.6543 2.71558ZM4.58984 10.5233C3.56996 11.8977 2.99068 13.4449 2.85146 15.165C2.85037 15.1788 2.8591 15.1916 2.87111 15.1927C2.87166 15.1927 2.87221 15.1927 2.87275 15.1927H24.1248C24.1455 15.1927 24.1624 15.1767 24.1624 15.157C24.1624 15.1559 24.1624 15.1548 24.1624 15.1538C23.9883 13.1281 23.219 11.351 21.854 9.82297C17.3509 4.78176 8.64915 5.0511 4.58984 10.5233Z" fill="#02676F"/>
<path d="M25.0906 17.3822C25.1206 17.4035 25.1474 17.4286 25.1709 17.4574C25.7288 18.1593 26.295 18.874 26.8694 19.6009C27.0905 19.8815 27.0266 20.2713 26.7116 20.4244C26.6095 20.4745 26.4501 20.4996 26.2339 20.4996C17.7336 20.4991 9.23282 20.4985 0.73257 20.4991C0.523462 20.4991 0.374957 20.4772 0.28651 20.4329C0.00151177 20.2895 -0.0956714 19.9081 0.109068 19.6441C0.661047 18.9316 1.21739 18.2227 1.77865 17.5171C1.96155 17.2873 2.10897 17.2457 2.42072 17.2457C9.84431 17.2451 17.2674 17.2451 24.691 17.2451C24.8285 17.2451 24.9618 17.291 25.0906 17.3822ZM2.52718 18.355L1.72296 19.3694C1.70386 19.3934 1.71204 19.4057 1.74644 19.4057H25.2642C25.2932 19.4057 25.2992 19.3956 25.2828 19.3748L24.4758 18.3625C24.4644 18.3475 24.448 18.339 24.4316 18.339H2.5654C2.54902 18.339 2.53483 18.3449 2.52718 18.355Z" fill="#02676F"/>
</g>
<defs>
<clipPath id="clip0_531_3081">
<rect width="27" height="20" fill="white" transform="translate(0 0.5)"/>
</clipPath>
</defs>
</svg>
